{
    "asset" : {
        "generator" : "Khronos glTF Blender I/O v1.7.33",
        "version" : "2.0"
    },
    "scene" : 0,
    "scenes" : [
        {
            "name" : "Scene",
            "nodes" : [
                0
            ]
        }
    ],
    "nodes" : [
        {
            "mesh" : 0,
            "name" : "TreeLowPoly",
            "scale" : [
                1.029754638671875,
                1.0041583776474,
                1.0413110256195068
            ]
        }
    ],
    "materials" : [
        {
            "doubleSided" : true,
            "name" : "Tree_Base",
            "pbrMetallicRoughness" : {
                "baseColorFactor" : [
                    0.15592655539512634,
                    0.05780540779232979,
                    0,
                    1
                ],
                "metallicFactor" : 0,
                "roughnessFactor" : 0.5
            }
        },
        {
            "doubleSided" : true,
            "name" : "Tree_leaves",
            "pbrMetallicRoughness" : {
                "baseColorFactor" : [
                    0.002428218023851514,
                    0.022173883393406868,
                    0.0027317435014992952,
                    1
                ],
                "metallicFactor" : 0,
                "roughnessFactor" : 0.5
            }
        }
    ],
    "meshes" : [
        {
            "name" : "Cone",
            "primitives" : [
                {
                    "attributes" : {
                        "POSITION" : 0,
                        "NORMAL" : 1,
                        "TEXCOORD_0" : 2
                    },
                    "indices" : 3,
                    "material" : 0
                },
                {
                    "attributes" : {
                        "POSITION" : 4,
                        "NORMAL" : 5,
                        "TEXCOORD_0" : 6
                    },
                    "indices" : 7,
                    "material" : 1
                }
            ]
        }
    ],
    "accessors" : [
        {
            "bufferView" : 0,
            "componentType" : 5126,
            "count" : 30,
            "max" : [
                0.21937821805477142,
                0.5020706653594971,
                0.21694350242614746
            ],
            "min" : [
                -0.21937817335128784,
                0.004141330718994141,
                -0.21694350242614746
            ],
            "type" : "VEC3"
        },
        {
            "bufferView" : 1,
            "componentType" : 5126,
            "count" : 30,
            "type" : "VEC3"
        },
        {
            "bufferView" : 2,
            "componentType" : 5126,
            "count" : 30,
            "type" : "VEC2"
        },
        {
            "bufferView" : 3,
            "componentType" : 5123,
            "count" : 48,
            "type" : "SCALAR"
        },
        {
            "bufferView" : 4,
            "componentType" : 5126,
            "count" : 42,
            "max" : [
                0.97110515832901,
                4.485506057739258,
                0.9603278636932373
            ],
            "min" : [
                -0.97110515832901,
                0.5020706653594971,
                -0.9603278636932373
            ],
            "type" : "VEC3"
        },
        {
            "bufferView" : 5,
            "componentType" : 5126,
            "count" : 42,
            "type" : "VEC3"
        },
        {
            "bufferView" : 6,
            "componentType" : 5126,
            "count" : 42,
            "type" : "VEC2"
        },
        {
            "bufferView" : 7,
            "componentType" : 5123,
            "count" : 54,
            "type" : "SCALAR"
        }
    ],
    "bufferViews" : [
        {
            "buffer" : 0,
            "byteLength" : 360,
            "byteOffset" : 0
        },
        {
            "buffer" : 0,
            "byteLength" : 360,
            "byteOffset" : 360
        },
        {
            "buffer" : 0,
            "byteLength" : 240,
            "byteOffset" : 720
        },
        {
            "buffer" : 0,
            "byteLength" : 96,
            "byteOffset" : 960
        },
        {
            "buffer" : 0,
            "byteLength" : 504,
            "byteOffset" : 1056
        },
        {
            "buffer" : 0,
            "byteLength" : 504,
            "byteOffset" : 1560
        },
        {
            "buffer" : 0,
            "byteLength" : 336,
            "byteOffset" : 2064
        },
        {
            "buffer" : 0,
            "byteLength" : 108,
            "byteOffset" : 2400
        }
    ],
    "buffers" : [
        {
            "byteLength" : 2508,
            "uri" : "data:application/octet-stream;base64,"
        }
    ]
}
