{
    "asset" : {
        "generator" : "Khronos glTF Blender I/O v1.7.33",
        "version" : "2.0"
    },
    "scene" : 0,
    "scenes" : [
        {
            "name" : "Scene",
            "nodes" : [
                0
            ]
        }
    ],
    "nodes" : [
        {
            "mesh" : 0,
            "name" : "Car"
        }
    ],
    "meshes" : [
        {
            "name" : "Cube",
            "primitives" : [
                {
                    "attributes" : {
                        "POSITION" : 0,
                        "NORMAL" : 1,
                        "TEXCOORD_0" : 2
                    },
                    "indices" : 3
                }
            ]
        }
    ],
    "accessors" : [
        {
            "bufferView" : 0,
            "componentType" : 5126,
            "count" : 74,
            "max" : [
                1.3710378408432007,
                2.5405237674713135,
                3.8373796939849854
            ],
            "min" : [
                -1.3710378408432007,
                0,
                -4.619755268096924
            ],
            "type" : "VEC3"
        },
        {
            "bufferView" : 1,
            "componentType" : 5126,
            "count" : 74,
            "type" : "VEC3"
        },
        {
            "bufferView" : 2,
            "componentType" : 5126,
            "count" : 74,
            "type" : "VEC2"
        },
        {
            "bufferView" : 3,
            "componentType" : 5123,
            "count" : 132,
            "type" : "SCALAR"
        }
    ],
    "bufferViews" : [
        {
            "buffer" : 0,
            "byteLength" : 888,
            "byteOffset" : 0
        },
        {
            "buffer" : 0,
            "byteLength" : 888,
            "byteOffset" : 888
        },
        {
            "buffer" : 0,
            "byteLength" : 592,
            "byteOffset" : 1776
        },
        {
            "buffer" : 0,
            "byteLength" : 264,
            "byteOffset" : 2368
        }
    ],
    "buffers" : [
        {
            "byteLength" : 2632,
            "uri" : "data:application/octet-stream;base64,"
        }
    ]
}
