{
    "asset" : {
        "generator" : "Khronos glTF Blender I/O v1.7.33",
        "version" : "2.0"
    },
    "scene" : 0,
    "scenes" : [
        {
            "name" : "Scene",
            "nodes" : [
                0,
                1
            ]
        }
    ],
    "nodes" : [
        {
            "mesh" : 0,
            "name" : "Car"
        },
        {
            "mesh" : 1,
            "name" : "Wheels",
            "rotation" : [
                0,
                0,
                -0.7071067690849304,
                0.7071068286895752
            ],
            "scale" : [
                0.5,
                0.5,
                0.5
            ],
            "translation" : [
                1,
                0,
                -3
            ]
        }
    ],
    "materials" : [
        {
            "doubleSided" : true,
            "name" : "Windshield Material",
            "pbrMetallicRoughness" : {
                "baseColorFactor" : [
                    0.03736364096403122,
                    0.013097763061523438,
                    0.011210289783775806,
                    1
                ],
                "metallicFactor" : 0,
                "roughnessFactor" : 0.5
            }
        },
        {
            "doubleSided" : true,
            "name" : "Car Material",
            "pbrMetallicRoughness" : {
                "baseColorFactor" : [
                    0.8000000715255737,
                    0.020694591104984283,
                    0.037109412252902985,
                    1
                ],
                "metallicFactor" : 0.8503937125205994,
                "roughnessFactor" : 0.4000000059604645
            }
        },
        {
            "doubleSided" : true,
            "name" : "Inner Tire",
            "pbrMetallicRoughness" : {
                "baseColorFactor" : [
                    0.800000011920929,
                    0.800000011920929,
                    0.800000011920929,
                    1
                ],
                "metallicFactor" : 0,
                "roughnessFactor" : 0.5
            }
        },
        {
            "doubleSided" : true,
            "name" : "Rubber",
            "pbrMetallicRoughness" : {
                "baseColorFactor" : [
                    0.0063701532781124115,
                    0.0063701532781124115,
                    0.0063701532781124115,
                    1
                ],
                "metallicFactor" : 0,
                "roughnessFactor" : 0.5
            }
        }
    ],
    "meshes" : [
        {
            "name" : "Cube",
            "primitives" : [
                {
                    "attributes" : {
                        "POSITION" : 0,
                        "NORMAL" : 1,
                        "TEXCOORD_0" : 2
                    },
                    "indices" : 3,
                    "material" : 0
                },
                {
                    "attributes" : {
                        "POSITION" : 4,
                        "NORMAL" : 5,
                        "TEXCOORD_0" : 6
                    },
                    "indices" : 7,
                    "material" : 1
                }
            ]
        },
        {
            "name" : "Cylinder",
            "primitives" : [
                {
                    "attributes" : {
                        "POSITION" : 8,
                        "NORMAL" : 9,
                        "TEXCOORD_0" : 10
                    },
                    "indices" : 11,
                    "material" : 2
                },
                {
                    "attributes" : {
                        "POSITION" : 12,
                        "NORMAL" : 13,
                        "TEXCOORD_0" : 14
                    },
                    "indices" : 15,
                    "material" : 3
                }
            ]
        }
    ],
    "accessors" : [
        {
            "bufferView" : 0,
            "componentType" : 5126,
            "count" : 16,
            "max" : [
                1.1421462297439575,
                2.6137523651123047,
                2.49666428565979
            ],
            "min" : [
                -1.1421462297439575,
                1.652026653289795,
                -2.829503059387207
            ],
            "type" : "VEC3"
        },
        {
            "bufferView" : 1,
            "componentType" : 5126,
            "count" : 16,
            "type" : "VEC3"
        },
        {
            "bufferView" : 2,
            "componentType" : 5126,
            "count" : 16,
            "type" : "VEC2"
        },
        {
            "bufferView" : 3,
            "componentType" : 5123,
            "count" : 24,
            "type" : "SCALAR"
        },
        {
            "bufferView" : 4,
            "componentType" : 5126,
            "count" : 254,
            "max" : [
                1.3710378408432007,
                2.670783758163452,
                4.264259338378906
            ],
            "min" : [
                -1.3710378408432007,
                -0.12021279335021973,
                -5.02667236328125
            ],
            "type" : "VEC3"
        },
        {
            "bufferView" : 5,
            "componentType" : 5126,
            "count" : 254,
            "type" : "VEC3"
        },
        {
            "bufferView" : 6,
            "componentType" : 5126,
            "count" : 254,
            "type" : "VEC2"
        },
        {
            "bufferView" : 7,
            "componentType" : 5123,
            "count" : 384,
            "type" : "SCALAR"
        },
        {
            "bufferView" : 8,
            "componentType" : 5126,
            "count" : 128,
            "max" : [
                0.7284953594207764,
                1,
                10.728494644165039
            ],
            "min" : [
                -0.7284953594207764,
                -5,
                -0.7284953594207764
            ],
            "type" : "VEC3"
        },
        {
            "bufferView" : 9,
            "componentType" : 5126,
            "count" : 128,
            "type" : "VEC3"
        },
        {
            "bufferView" : 10,
            "componentType" : 5126,
            "count" : 128,
            "type" : "VEC2"
        },
        {
            "bufferView" : 11,
            "componentType" : 5123,
            "count" : 360,
            "type" : "SCALAR"
        },
        {
            "bufferView" : 12,
            "componentType" : 5126,
            "count" : 1012,
            "max" : [
                1,
                1,
                10.999999046325684
            ],
            "min" : [
                -1,
                -5,
                -1
            ],
            "type" : "VEC3"
        },
        {
            "bufferView" : 13,
            "componentType" : 5126,
            "count" : 1012,
            "type" : "VEC3"
        },
        {
            "bufferView" : 14,
            "componentType" : 5126,
            "count" : 1012,
            "type" : "VEC2"
        },
        {
            "bufferView" : 15,
            "componentType" : 5123,
            "count" : 1896,
            "type" : "SCALAR"
        }
    ],
    "bufferViews" : [
        {
            "buffer" : 0,
            "byteLength" : 192,
            "byteOffset" : 0
        },
        {
            "buffer" : 0,
            "byteLength" : 192,
            "byteOffset" : 192
        },
        {
            "buffer" : 0,
            "byteLength" : 128,
            "byteOffset" : 384
        },
        {
            "buffer" : 0,
            "byteLength" : 48,
            "byteOffset" : 512
        },
        {
            "buffer" : 0,
            "byteLength" : 3048,
            "byteOffset" : 560
        },
        {
            "buffer" : 0,
            "byteLength" : 3048,
            "byteOffset" : 3608
        },
        {
            "buffer" : 0,
            "byteLength" : 2032,
            "byteOffset" : 6656
        },
        {
            "buffer" : 0,
            "byteLength" : 768,
            "byteOffset" : 8688
        },
        {
            "buffer" : 0,
            "byteLength" : 1536,
            "byteOffset" : 9456
        },
        {
            "buffer" : 0,
            "byteLength" : 1536,
            "byteOffset" : 10992
        },
        {
            "buffer" : 0,
            "byteLength" : 1024,
            "byteOffset" : 12528
        },
        {
            "buffer" : 0,
            "byteLength" : 720,
            "byteOffset" : 13552
        },
        {
            "buffer" : 0,
            "byteLength" : 12144,
            "byteOffset" : 14272
        },
        {
            "buffer" : 0,
            "byteLength" : 12144,
            "byteOffset" : 26416
        },
        {
            "buffer" : 0,
            "byteLength" : 8096,
            "byteOffset" : 38560
        },
        {
            "buffer" : 0,
            "byteLength" : 3792,
            "byteOffset" : 46656
        }
    ],
    "buffers" : [
        {
            "byteLength" : 50448,
            "uri" : "data:application/octet-stream;base64,"
        }
    ]
}
