{
    "asset" : {
        "generator" : "Khronos glTF Blender I/O v1.7.33",
        "version" : "2.0"
    },
    "scene" : 0,
    "scenes" : [
        {
            "name" : "Scene",
            "nodes" : [
                0
            ]
        }
    ],
    "nodes" : [
        {
            "mesh" : 0,
            "name" : "Mountain",
            "translation" : [
                0,
                1,
                -60
            ]
        }
    ],
    "meshes" : [
        {
            "name" : "Cylinder",
            "primitives" : [
                {
                    "attributes" : {
                        "POSITION" : 0,
                        "NORMAL" : 1,
                        "TEXCOORD_0" : 2
                    },
                    "indices" : 3
                }
            ]
        }
    ],
    "accessors" : [
        {
            "bufferView" : 0,
            "componentType" : 5126,
            "count" : 8700,
            "max" : [
                56.012603759765625,
                69.20256042480469,
                50.00037384033203
            ],
            "min" : [
                -50,
                -1,
                -49.99962615966797
            ],
            "type" : "VEC3"
        },
        {
            "bufferView" : 1,
            "componentType" : 5126,
            "count" : 8700,
            "type" : "VEC3"
        },
        {
            "bufferView" : 2,
            "componentType" : 5126,
            "count" : 8700,
            "type" : "VEC2"
        },
        {
            "bufferView" : 3,
            "componentType" : 5123,
            "count" : 13482,
            "type" : "SCALAR"
        }
    ],
    "bufferViews" : [
        {
            "buffer" : 0,
            "byteLength" : 104400,
            "byteOffset" : 0
        },
        {
            "buffer" : 0,
            "byteLength" : 104400,
            "byteOffset" : 104400
        },
        {
            "buffer" : 0,
            "byteLength" : 69600,
            "byteOffset" : 208800
        },
        {
            "buffer" : 0,
            "byteLength" : 26964,
            "byteOffset" : 278400
        }
    ],
    "buffers" : [
        {
            "byteLength" : 305364,
            "uri" : "data:application/octet-stream;base64,"
        }
    ]
}
