{
    "asset" : {
        "generator" : "Khronos glTF Blender I/O v1.7.33",
        "version" : "2.0"
    },
    "scene" : 0,
    "scenes" : [
        {
            "name" : "Scene",
            "nodes" : [
                0
            ]
        }
    ],
    "nodes" : [
        {
            "mesh" : 0,
            "name" : "Road_Long",
            "translation" : [
                0,
                1,
                -50
            ]
        }
    ],
    "materials" : [
        {
            "doubleSided" : true,
            "name" : "Material.005",
            "pbrMetallicRoughness" : {
                "baseColorFactor" : [
                    0.12370975315570831,
                    0.12370975315570831,
                    0.12370975315570831,
                    1
                ],
                "metallicFactor" : 0,
                "roughnessFactor" : 0.5
            }
        }
    ],
    "meshes" : [
        {
            "name" : "Cylinder.004",
            "primitives" : [
                {
                    "attributes" : {
                        "POSITION" : 0,
                        "NORMAL" : 1,
                        "TEXCOORD_0" : 2
                    },
                    "indices" : 3,
                    "material" : 0
                }
            ]
        }
    ],
    "accessors" : [
        {
            "bufferView" : 0,
            "componentType" : 5126,
            "count" : 1052,
            "max" : [
                55.068241119384766,
                48.92831039428711,
                139.87100219726562
            ],
            "min" : [
                -53.01898193359375,
                9.72443675994873,
                -56.80942153930664
            ],
            "type" : "VEC3"
        },
        {
            "bufferView" : 1,
            "componentType" : 5126,
            "count" : 1052,
            "type" : "VEC3"
        },
        {
            "bufferView" : 2,
            "componentType" : 5126,
            "count" : 1052,
            "type" : "VEC2"
        },
        {
            "bufferView" : 3,
            "componentType" : 5123,
            "count" : 1578,
            "type" : "SCALAR"
        }
    ],
    "bufferViews" : [
        {
            "buffer" : 0,
            "byteLength" : 12624,
            "byteOffset" : 0
        },
        {
            "buffer" : 0,
            "byteLength" : 12624,
            "byteOffset" : 12624
        },
        {
            "buffer" : 0,
            "byteLength" : 8416,
            "byteOffset" : 25248
        },
        {
            "buffer" : 0,
            "byteLength" : 3156,
            "byteOffset" : 33664
        }
    ],
    "buffers" : [
        {
            "byteLength" : 36820,
            "uri" : "data:application/octet-stream;base64,"
        }
    ]
}
