{
    "asset" : {
        "generator" : "Khronos glTF Blender I/O v1.7.33",
        "version" : "2.0"
    },
    "scene" : 0,
    "scenes" : [
        {
            "name" : "Scene",
            "nodes" : [
                0
            ]
        }
    ],
    "nodes" : [
        {
            "mesh" : 0,
            "name" : "Road_Long",
            "translation" : [
                0,
                1,
                -50
            ]
        }
    ],
    "materials" : [
        {
            "doubleSided" : true,
            "name" : "Material.005",
            "pbrMetallicRoughness" : {
                "baseColorFactor" : [
                    0.12370975315570831,
                    0.12370975315570831,
                    0.12370975315570831,
                    1
                ],
                "metallicFactor" : 0,
                "roughnessFactor" : 0.5
            }
        }
    ],
    "meshes" : [
        {
            "name" : "Cylinder.004",
            "primitives" : [
                {
                    "attributes" : {
                        "POSITION" : 0,
                        "NORMAL" : 1,
                        "TEXCOORD_0" : 2
                    },
                    "indices" : 3,
                    "material" : 0
                }
            ]
        }
    ],
    "accessors" : [
        {
            "bufferView" : 0,
            "componentType" : 5126,
            "count" : 1046,
            "max" : [
                52.602657318115234,
                44.98746109008789,
                139.87100219726562
            ],
            "min" : [
                -42.50239944458008,
                9.18000602722168,
                -56.80942153930664
            ],
            "type" : "VEC3"
        },
        {
            "bufferView" : 1,
            "componentType" : 5126,
            "count" : 1046,
            "type" : "VEC3"
        },
        {
            "bufferView" : 2,
            "componentType" : 5126,
            "count" : 1046,
            "type" : "VEC2"
        },
        {
            "bufferView" : 3,
            "componentType" : 5123,
            "count" : 1572,
            "type" : "SCALAR"
        }
    ],
    "bufferViews" : [
        {
            "buffer" : 0,
            "byteLength" : 12552,
            "byteOffset" : 0
        },
        {
            "buffer" : 0,
            "byteLength" : 12552,
            "byteOffset" : 12552
        },
        {
            "buffer" : 0,
            "byteLength" : 8368,
            "byteOffset" : 25104
        },
        {
            "buffer" : 0,
            "byteLength" : 3144,
            "byteOffset" : 33472
        }
    ],
    "buffers" : [
        {
            "byteLength" : 36616,
            "uri" : "data:application/octet-stream;base64,"
        }
    ]
}
