{
    "asset" : {
        "generator" : "Khronos glTF Blender I/O v1.7.33",
        "version" : "2.0"
    },
    "scene" : 0,
    "scenes" : [
        {
            "name" : "Scene",
            "nodes" : [
                0
            ]
        }
    ],
    "nodes" : [
        {
            "mesh" : 0,
            "name" : "Plane",
            "translation" : [
                0,
                0,
                -25
            ]
        }
    ],
    "meshes" : [
        {
            "name" : "Plane",
            "primitives" : [
                {
                    "attributes" : {
                        "POSITION" : 0,
                        "NORMAL" : 1,
                        "TEXCOORD_0" : 2
                    },
                    "indices" : 3
                }
            ]
        }
    ],
    "accessors" : [
        {
            "bufferView" : 0,
            "componentType" : 5126,
            "count" : 4840,
            "max" : [
                250,
                200.92184448242188,
                250
            ],
            "min" : [
                -250,
                0,
                -250
            ],
            "type" : "VEC3"
        },
        {
            "bufferView" : 1,
            "componentType" : 5126,
            "count" : 4840,
            "type" : "VEC3"
        },
        {
            "bufferView" : 2,
            "componentType" : 5126,
            "count" : 4840,
            "type" : "VEC2"
        },
        {
            "bufferView" : 3,
            "componentType" : 5123,
            "count" : 11616,
            "type" : "SCALAR"
        }
    ],
    "bufferViews" : [
        {
            "buffer" : 0,
            "byteLength" : 58080,
            "byteOffset" : 0
        },
        {
            "buffer" : 0,
            "byteLength" : 58080,
            "byteOffset" : 58080
        },
        {
            "buffer" : 0,
            "byteLength" : 38720,
            "byteOffset" : 116160
        },
        {
            "buffer" : 0,
            "byteLength" : 23232,
            "byteOffset" : 154880
        }
    ],
    "buffers" : [
        {
            "byteLength" : 178112,
            "uri" : "data:application/octet-stream;base64,"
        }
    ]
}
